<svg viewBox="0 0 14 9" fill="none" xmlns="http://www.w3.org/2000/svg">
<path d="M12.0228 8.65816C12.2429 8.87068 12.5376 8.98827 12.8435 8.98561C13.1494 8.98295 13.442 8.86026 13.6583 8.64395C13.8746 8.42764 13.9973 8.13502 14 7.82913C14.0026 7.52323 13.885 7.22853 13.6725 7.00849L7.83917 1.17516C7.62039 0.956444 7.32369 0.833576 7.01434 0.833576C6.70498 0.833576 6.40828 0.956444 6.1895 1.17516L0.356167 7.00849C0.143649 7.22853 0.0260563 7.52323 0.0287144 7.82913C0.0313726 8.13502 0.15407 8.42764 0.37038 8.64395C0.586689 8.86026 0.879305 8.98295 1.1852 8.98561C1.4911 8.98827 1.7858 8.87068 2.00584 8.65816L7.01434 3.64966L12.0228 8.65816Z" fill="#191919"/>
</svg>
