<svg width="24" height="24" viewBox="0 0 24 24" fill="currentColor" xmlns="http://www.w3.org/2000/svg" class="Svg-sc-1cvehoj-1 gEwQyG"><path fill-rule="evenodd" clip-rule="evenodd" d="M15.696 5.183A10.172 10.172 0 0012 4.5c-4.907 0-7.968 3.331-9.375 5.346a3.737 3.737 0 000 4.308 14.7 14.7 0 001.89 2.21l1.414-1.414a12.644 12.644 0 01-1.664-1.941 1.737 1.737 0 010-2.018C5.545 9.158 8.083 6.5 12 6.5c.753 0 1.456.098 2.108.27l1.588-1.587zM8.429 16.692A8.207 8.207 0 0012 17.5c3.917 0 6.455-2.658 7.735-4.491a1.74 1.74 0 000-2.018c-.62-.887-1.534-1.968-2.758-2.847l1.43-1.43c1.344 1.025 2.327 2.215 2.968 3.132a3.737 3.737 0 010 4.308C19.968 16.169 16.907 19.5 12 19.5a10.2 10.2 0 01-5.055-1.324l1.484-1.484z"></path><path fill-rule="evenodd" clip-rule="evenodd" d="M13.002 7.877a4 4 0 00-4.876 4.876l4.876-4.876zm-3.06 7.303a4 4 0 005.489-5.489l-1.508 1.507a2 2 0 01-2.475 2.475L9.941 15.18z"></path><path fill-rule="evenodd" clip-rule="evenodd" d="M19.707 4.71a1 1 0 010 1.414l-14 14a1 1 0 11-1.414-1.415l14-14a1 1 0 011.414 0z"></path></svg>