<svg width="24" height="24" viewBox="0 0 24 24" fill="currentColor" xmlns="http://www.w3.org/2000/svg" class="Svg-sc-1cvehoj-1 gEwQyG"><path fill-rule="evenodd" clip-rule="evenodd" d="M12 6.25c-3.917 0-6.455 2.658-7.735 4.491a1.737 1.737 0 000 2.018C5.545 14.592 8.083 17.25 12 17.25c3.917 0 6.455-2.658 7.735-4.491a1.74 1.74 0 000-2.018C18.455 8.908 15.917 6.25 12 6.25zM2.625 9.596C4.032 7.581 7.093 4.25 12 4.25s7.968 3.331 9.375 5.346a3.737 3.737 0 010 4.308C19.968 15.919 16.907 19.25 12 19.25s-7.968-3.331-9.375-5.346a3.737 3.737 0 010-4.308z"></path><path fill-rule="evenodd" clip-rule="evenodd" d="M12 9.75a2 2 0 100 4 2 2 0 000-4zm-4 2a4 4 0 118 0 4 4 0 01-8 0z"></path></svg>