<svg width="28" height="9" viewBox="0 0 28 9" xmlns="http://www.w3.org/2000/svg" data-testid="icon_payment/mir" class="Svg-sc-1cvehoj-1 gEwQyG i95kz7h"><g clip-path="url(#a)" fill-rule="evenodd" clip-rule="evenodd"><path d="M7.54512 1.5e-7v.00346106c-.00346 0-1.0937-.00346108-1.38443 1.03831879-.2665.95525-1.01755 3.59258-1.03832 3.66527h-.20766s-.76836-2.69617-1.03832-3.66873C3.58566-.00346094 2.49197 1.5e-7 2.49197 1.5e-7H0V7.92583h2.49197V3.21879h.20766l1.45365 4.70704h1.73053l1.45364-4.70358h.20767v4.70358h2.49198V1.5e-7H7.54512zM16.6478 0s-.7303.0657602-1.0729.830655L13.8097 4.70705h-.2076V0h-2.492v7.92583h2.3535s.7649-.06922 1.1076-.83065l1.7305-3.87639h.2077v4.70704h2.4919V0h-2.3535zm3.4614 3.5993v4.32633h2.4919V5.39906h2.6997c1.1767 0 2.1735-.75105 2.5438-1.79976h-7.7354z" fill="#4DB45E"></path><path d="M25.3004 0h-5.5412c.2769 1.50902 1.4087 2.7204 2.8727 3.11496.3323.08998.6819.13844 1.0418.13844h4.271c.038-.17998.0553-.36341.0553-.55377C28 1.20791 26.7921 0 25.3004 0z" fill="url(#b)"></path></g><defs><linearGradient id="b" x1="19.7599" y1="1.6267" x2="28" y2="1.6267" gradientUnits="userSpaceOnUse"><stop offset=".3" stop-color="#00B4E6"></stop><stop offset="1" stop-color="#088CCB"></stop></linearGradient><clipPath id="a"><path fill="#fff" d="M0 0h28v8.4H0z"></path></clipPath></defs></svg>