<svg viewBox="0 0 20 20" fill="none" xmlns="http://www.w3.org/2000/svg">
<path fill-rule="evenodd" clip-rule="evenodd" d="M10.0001 0.666672C10.3095 0.666672 10.6062 0.789588 10.825 1.00838C11.0438 1.22717 11.1667 1.52392 11.1667 1.83334V8.83334H18.1667C18.4762 8.83334 18.7729 8.95625 18.9917 9.17505C19.2105 9.39384 19.3334 9.69059 19.3334 10C19.3334 10.3094 19.2105 10.6062 18.9917 10.825C18.7729 11.0438 18.4762 11.1667 18.1667 11.1667H11.1667V18.1667C11.1667 18.4761 11.0438 18.7728 10.825 18.9916C10.6062 19.2104 10.3095 19.3333 10.0001 19.3333C9.69066 19.3333 9.39392 19.2104 9.17512 18.9916C8.95633 18.7728 8.83341 18.4761 8.83341 18.1667V11.1667H1.83341C1.524 11.1667 1.22725 11.0438 1.00846 10.825C0.789665 10.6062 0.666748 10.3094 0.666748 10C0.666748 9.69059 0.789665 9.39384 1.00846 9.17505C1.22725 8.95625 1.524 8.83334 1.83341 8.83334H8.83341V1.83334C8.83341 1.52392 8.95633 1.22717 9.17512 1.00838C9.39392 0.789588 9.69066 0.666672 10.0001 0.666672Z" fill="currentColor"/>
</svg>
