<svg viewBox="0 0 22 24" fill="none" xmlns="http://www.w3.org/2000/svg">
<path fill-rule="evenodd" clip-rule="evenodd" d="M7.66052 0.913865C7.57177 0.934307 7.48566 0.964839 7.40385 1.00487C7.33969 1.0387 6.72835 1.62087 6.04585 2.2987L4.80452 3.5307L3.34269 2.31153C2.53885 1.64187 1.82252 1.0632 1.75135 1.02587C1.61724 0.97884 1.47577 0.956315 1.33369 0.959365C0.994187 0.959365 0.745687 1.0772 0.609187 1.30237C0.522853 1.44587 0.52052 1.67453 0.50652 9.68603C0.49602 15.664 0.50652 18.0184 0.54502 18.2727C0.729353 19.4884 1.19952 20.48 1.99052 21.32C2.84219 22.2367 3.97534 22.8431 5.21052 23.0432C5.71802 23.1295 16.2764 23.1295 16.7839 23.0432C18.9037 22.6827 20.6 21.2244 21.2335 19.2177C21.5077 18.3497 21.4972 18.7522 21.4972 9.83653C21.4972 2.54603 21.489 1.6372 21.4249 1.4832C21.2102 0.971032 20.698 0.770365 20.2535 1.0247C20.1462 1.08537 19.2887 1.6862 18.346 2.35937L16.6345 3.58437L15.3442 2.29753C14.629 1.5847 13.992 0.987366 13.9139 0.958199C13.8109 0.920394 13.7015 0.903402 13.592 0.908208C13.4824 0.913015 13.3749 0.939524 13.2757 0.986199C13.1905 1.02937 12.5745 1.60803 11.9072 2.2707L10.6939 3.4747L9.43385 2.22403C8.09219 0.891699 8.01869 0.838032 7.66052 0.913865ZM10.506 5.6202C10.926 5.73453 11.0859 5.61903 12.606 4.0907L13.6327 3.06053L14.8694 4.2937C15.5507 4.97153 16.1667 5.54903 16.239 5.57703C16.4794 5.66687 16.7045 5.63537 16.9729 5.47203C17.1129 5.38687 17.7895 4.91436 18.4755 4.4232L19.7239 3.52837L19.7227 10.7955C19.7227 18.6472 19.732 18.3357 19.4754 18.9715C19.1055 19.8862 18.234 20.7589 17.3602 21.0879C16.6917 21.3399 16.9775 21.3294 10.9972 21.3294C5.01685 21.3294 5.30269 21.3399 4.63419 21.0879C3.76035 20.7589 2.88885 19.8862 2.51902 18.9704C2.26002 18.3299 2.26935 18.6379 2.28219 10.8807L2.29385 3.71737L3.27385 4.53753C3.81285 4.98786 4.34719 5.4172 4.46152 5.49187C4.71935 5.6587 5.01569 5.6727 5.25719 5.52687C5.34702 5.4732 5.95602 4.89686 6.61052 4.24587L7.80052 3.06287L9.06052 4.31587C10.1012 5.35186 10.3532 5.5782 10.506 5.6202ZM5.93385 9.75603C5.53135 9.89837 5.35285 10.3545 5.49519 10.876C5.55235 11.0872 5.68185 11.2447 5.88719 11.359C6.01552 11.429 6.46002 11.436 10.9972 11.436C15.9264 11.436 15.9684 11.4349 16.1305 11.3404C16.7384 10.9834 16.652 9.91586 15.9999 9.73503C15.8867 9.70353 14.1659 9.6872 10.9739 9.68836C6.91152 9.68953 6.09019 9.7012 5.93385 9.75603ZM5.93385 14.4227C5.53135 14.565 5.35285 15.0212 5.49519 15.5427C5.55235 15.7539 5.68185 15.9114 5.88719 16.0257C6.01552 16.0957 6.46002 16.1027 10.9972 16.1027C15.9264 16.1027 15.9684 16.1015 16.1305 16.007C16.7384 15.65 16.652 14.5825 15.9999 14.4017C15.8867 14.3702 14.1659 14.3539 10.9739 14.355C6.91152 14.3562 6.09019 14.3679 5.93385 14.4227Z" fill="#191919"/>
</svg>
