<svg width="28" height="28" viewBox="0 0 28 28" fill="none" xmlns="http://www.w3.org/2000/svg">
<path fill-rule="evenodd" clip-rule="evenodd" d="M21.7151 4.91166L21.8248 5.00849L25.3248 8.50849C25.3563 8.53999 25.3855 8.57266 25.4135 8.60766L25.5103 8.74999L25.5546 8.83516L25.5966 8.93666L25.634 9.06032L25.6585 9.19683L25.6655 9.29483V9.40216L25.6491 9.53749L25.6083 9.69733L25.557 9.82683L25.4963 9.94116L25.4181 10.0532L25.3248 10.1582L21.8248 13.6582C21.6153 13.8696 21.333 13.993 21.0355 14.0031C20.738 14.0132 20.4479 13.9092 20.2246 13.7124C20.0013 13.5157 19.8617 13.241 19.8342 12.9446C19.8068 12.6482 19.8937 12.3526 20.0771 12.1182L20.1751 12.0085L21.6825 10.5H10.5C10.2142 10.5 9.93841 10.395 9.72487 10.2052C9.51133 10.0153 9.37491 9.75362 9.34147 9.46982L9.33331 9.33333C9.33331 9.02391 9.45622 8.72716 9.67501 8.50837C9.89381 8.28957 10.1906 8.16666 10.5 8.16666H21.6825L20.1751 6.65816C19.9741 6.45741 19.8532 6.19021 19.8352 5.90668C19.8171 5.62314 19.9032 5.34277 20.0771 5.11816L20.1751 5.00849C20.3585 4.82502 20.5977 4.70787 20.855 4.67554C21.1124 4.64322 21.3731 4.69756 21.5961 4.82999L21.7151 4.91166ZM6.17514 22.9915L2.67514 19.4915L2.56197 19.3608L2.47914 19.2325L2.41614 19.0995L2.37414 18.977L2.35081 18.8708L2.33447 18.7355V18.5978L2.35081 18.4625L2.39164 18.3015L2.41497 18.2385L2.45931 18.137L2.50364 18.0588L2.56781 17.9655L2.62847 17.8908L2.67514 17.8418L6.17514 14.3418L6.28481 14.245C6.48941 14.0862 6.74101 14.0001 6.99997 14.0001C7.25893 14.0001 7.51054 14.0862 7.71514 14.245L7.82481 14.3418L7.92164 14.4515C8.08038 14.6561 8.16654 14.9077 8.16654 15.1667C8.16654 15.4256 8.08038 15.6772 7.92164 15.8818L7.82481 15.9915L6.31747 17.5H17.5C17.7857 17.5 18.0615 17.6049 18.2751 17.7948C18.4886 17.9847 18.625 18.2464 18.6585 18.5302L18.6666 18.6667L18.6585 18.8032C18.6277 19.0638 18.51 19.3064 18.3243 19.4918C18.1387 19.6773 17.8959 19.7947 17.6353 19.8252L17.5 19.8333H6.31747L7.82481 21.3418L7.92164 21.4515C8.09564 21.676 8.18178 21.9562 8.16389 22.2397C8.14601 22.5231 8.02534 22.7903 7.8245 22.9912C7.62366 23.192 7.35646 23.3127 7.073 23.3306C6.78954 23.3485 6.50929 23.2623 6.28481 23.0883L6.17514 22.9915Z" fill="#191919"/>
</svg>
