<svg width="28" height="28" viewBox="0 0 28 28" fill="none" xmlns="http://www.w3.org/2000/svg">
<path fill-rule="evenodd" clip-rule="evenodd" d="M22.1666 2.33331C23.0948 2.33331 23.9851 2.70206 24.6415 3.35844C25.2978 4.01482 25.6666 4.90506 25.6666 5.83331V22.1666C25.6666 23.0949 25.2978 23.9851 24.6415 24.6415C23.9851 25.2979 23.0948 25.6666 22.1666 25.6666H5.83325C4.90499 25.6666 4.01476 25.2979 3.35838 24.6415C2.702 23.9851 2.33325 23.0949 2.33325 22.1666V5.83331C2.33325 4.90506 2.702 4.01482 3.35838 3.35844C4.01476 2.70206 4.90499 2.33331 5.83325 2.33331H22.1666ZM22.1666 4.66665H5.83325C5.52383 4.66665 5.22709 4.78956 5.00829 5.00836C4.7895 5.22715 4.66659 5.52389 4.66659 5.83331V22.1666C4.66659 22.4761 4.7895 22.7728 5.00829 22.9916C5.22709 23.2104 5.52383 23.3333 5.83325 23.3333H22.1666C22.476 23.3333 22.7728 23.2104 22.9915 22.9916C23.2103 22.7728 23.3333 22.4761 23.3333 22.1666V5.83331C23.3333 5.52389 23.2103 5.22715 22.9915 5.00836C22.7728 4.78956 22.476 4.66665 22.1666 4.66665ZM9.33325 16.3333C9.64267 16.3333 9.93942 16.4562 10.1582 16.675C10.377 16.8938 10.4999 17.1906 10.4999 17.5V19.8333C10.4999 20.1427 10.377 20.4395 10.1582 20.6583C9.93942 20.8771 9.64267 21 9.33325 21C9.02383 21 8.72709 20.8771 8.50829 20.6583C8.2895 20.4395 8.16659 20.1427 8.16659 19.8333V17.5C8.16659 17.1906 8.2895 16.8938 8.50829 16.675C8.72709 16.4562 9.02383 16.3333 9.33325 16.3333ZM13.9999 6.99998C14.3093 6.99998 14.6061 7.1229 14.8249 7.34169C15.0437 7.56048 15.1666 7.85723 15.1666 8.16665V19.8333C15.1666 20.1427 15.0437 20.4395 14.8249 20.6583C14.6061 20.8771 14.3093 21 13.9999 21C13.6905 21 13.3938 20.8771 13.175 20.6583C12.9562 20.4395 12.8333 20.1427 12.8333 19.8333V8.16665C12.8333 7.85723 12.9562 7.56048 13.175 7.34169C13.3938 7.1229 13.6905 6.99998 13.9999 6.99998ZM18.6666 11.6666C18.976 11.6666 19.2728 11.7896 19.4915 12.0084C19.7103 12.2271 19.8333 12.5239 19.8333 12.8333V19.8333C19.8333 20.1427 19.7103 20.4395 19.4915 20.6583C19.2728 20.8771 18.976 21 18.6666 21C18.3572 21 18.0604 20.8771 17.8416 20.6583C17.6228 20.4395 17.4999 20.1427 17.4999 19.8333V12.8333C17.4999 12.5239 17.6228 12.2271 17.8416 12.0084C18.0604 11.7896 18.3572 11.6666 18.6666 11.6666Z" fill="#191919"/>
</svg>
