<svg width="28" height="28" viewBox="0 0 28 28" fill="none" xmlns="http://www.w3.org/2000/svg">
<path fill-rule="evenodd" clip-rule="evenodd" d="M14 2.33331C19.7983 2.33331 24.5 6.98365 24.5 12.719C24.5 16.5153 21.3243 20.5286 15.106 24.9001L14 25.6666L13.3327 25.2058C6.825 20.7141 3.5 16.604 3.5 12.719C3.5 6.98365 8.20167 2.33331 14 2.33331ZM14 4.64098C9.48967 4.64098 5.83333 8.25765 5.83333 12.719C5.83333 15.5225 8.51317 18.942 14 22.8456C19.4868 18.942 22.1667 15.5225 22.1667 12.719C22.1667 8.25765 18.5103 4.64098 14 4.64098ZM14 6.99998C15.2377 6.99998 16.4247 7.49164 17.2998 8.36682C18.175 9.24198 18.6667 10.429 18.6667 11.6666C18.6667 12.9043 18.175 14.0913 17.2998 14.9665C16.4247 15.8416 15.2377 16.3333 14 16.3333C12.7623 16.3333 11.5753 15.8416 10.7002 14.9665C9.825 14.0913 9.33333 12.9043 9.33333 11.6666C9.33333 10.429 9.825 9.24198 10.7002 8.36682C11.5753 7.49164 12.7623 6.99998 14 6.99998ZM14 9.33331C13.3812 9.33331 12.7877 9.57915 12.3501 10.0167C11.9125 10.4543 11.6667 11.0478 11.6667 11.6666C11.6667 12.2855 11.9125 12.879 12.3501 13.3166C12.7877 13.7541 13.3812 14 14 14C14.6188 14 15.2123 13.7541 15.6499 13.3166C16.0875 12.879 16.3333 12.2855 16.3333 11.6666C16.3333 11.0478 16.0875 10.4543 15.6499 10.0167C15.2123 9.57915 14.6188 9.33331 14 9.33331Z" fill="#191919"/>
</svg>
