<svg width="28" height="28" viewBox="0 0 28 28" fill="none" xmlns="http://www.w3.org/2000/svg">
<path fill-rule="evenodd" clip-rule="evenodd" d="M16.3334 2.33331C16.6428 2.33338 16.9395 2.45634 17.1582 2.67515L22.9916 8.50848C23.2104 8.72722 23.3333 9.02392 23.3334 9.33331V22.1666C23.3334 23.0949 22.9647 23.9851 22.3083 24.6415C21.6519 25.2979 20.7617 25.6666 19.8334 25.6666H8.16675C7.23849 25.6666 6.34825 25.2979 5.69187 24.6415C5.0355 23.9851 4.66675 23.0949 4.66675 22.1666V5.83331C4.66675 4.90506 5.0355 4.01482 5.69187 3.35844C6.34825 2.70206 7.23849 2.33331 8.16675 2.33331H16.3334ZM13.9989 4.66665H8.16675C7.85733 4.66665 7.56058 4.78956 7.34179 5.00836C7.123 5.22715 7.00008 5.52389 7.00008 5.83331V22.1666C7.00008 22.4761 7.123 22.7728 7.34179 22.9916C7.56058 23.2104 7.85733 23.3333 8.16675 23.3333H19.8334C20.1428 23.3333 20.4396 23.2104 20.6584 22.9916C20.8772 22.7728 21.0001 22.4761 21.0001 22.1666V11.6666H15.1667C14.881 11.6666 14.6052 11.5617 14.3916 11.3718C14.1781 11.1819 14.0417 10.9203 14.0082 10.6365L14.0001 10.5L13.9989 4.66665ZM20.5171 9.33331L16.3322 5.14965L16.3334 9.33331H20.5171Z" fill="#191919"/>
</svg>
