<svg viewBox="0 0 28 28" fill="none" xmlns="http://www.w3.org/2000/svg">
<path fill-rule="evenodd" clip-rule="evenodd" d="M9.67525 6.17517L12.0086 3.84184C12.2185 3.6326 12.5003 3.51112 12.7965 3.50207C13.0928 3.49302 13.3814 3.59709 13.6037 3.79313C13.8261 3.98917 13.9654 4.26248 13.9935 4.55756C14.0217 4.85263 13.9364 5.14735 13.7551 5.38184L13.6582 5.4915L13.2872 5.86017C15.1581 5.71686 17.0287 6.14077 18.655 7.07658C20.2813 8.0124 21.5878 9.41666 22.4041 11.1062C23.2203 12.7957 23.5083 14.692 23.2306 16.5476C22.9529 18.4033 22.1223 20.1322 20.8473 21.5087C19.5722 22.8853 17.9119 23.8455 16.0828 24.2642C14.2538 24.6829 12.3411 24.5406 10.5941 23.8559C8.84718 23.1712 7.34717 21.9758 6.28981 20.4258C5.23246 18.8758 4.66683 17.043 4.66675 15.1667C4.66675 14.8571 4.78973 14.5602 5.00863 14.3413C5.22753 14.1224 5.52442 13.9994 5.834 13.9994C6.14357 13.9994 6.44047 14.1224 6.65937 14.3413C6.87827 14.5602 7.00125 14.8571 7.00125 15.1667C7.00146 16.5788 7.42878 17.9579 8.22707 19.1227C9.02536 20.2876 10.1573 21.1838 11.4742 21.6936C12.7911 22.2033 14.2315 22.3029 15.606 21.9792C16.9805 21.6554 18.225 20.9235 19.176 19.8796C20.127 18.8357 20.74 17.5285 20.9345 16.1298C21.129 14.7312 20.896 13.3063 20.2659 12.0425C19.6359 10.7787 18.6384 9.73502 17.4043 9.0485C16.1703 8.36197 14.7575 8.06474 13.3514 8.19584L13.6594 8.5085C13.8687 8.71845 13.9901 9.00018 13.9992 9.29645C14.0082 9.59272 13.9042 9.88133 13.7081 10.1037C13.5121 10.326 13.2388 10.4654 12.9437 10.4935C12.6486 10.5216 12.3539 10.4363 12.1194 10.255L12.0097 10.1582L9.67641 7.82484C9.47554 7.62394 9.35487 7.35666 9.33704 7.07313C9.31922 6.7896 9.40546 6.50931 9.57958 6.28484L9.67525 6.17517Z" fill="#191919"/>
</svg>
