<svg viewBox="0 0 28 28" fill="none" xmlns="http://www.w3.org/2000/svg">
<path d="M4.95592 4.956C5.14092 4.77087 5.39187 4.6668 5.65359 4.66667H15.3463C15.608 4.66667 15.8591 4.77066 16.0442 4.95575C16.2293 5.14085 16.3333 5.3919 16.3333 5.65367V6.7305C16.3333 7.03992 16.4562 7.33667 16.675 7.55546C16.8938 7.77425 17.1905 7.89717 17.4999 7.89717C17.8093 7.89717 18.1061 7.77425 18.3249 7.55546C18.5437 7.33667 18.6666 7.03992 18.6666 6.7305V5.65367C18.6666 4.77306 18.3168 3.92852 17.6941 3.30584C17.0714 2.68316 16.2269 2.33334 15.3463 2.33334H5.65359C4.77298 2.33334 3.92844 2.68316 3.30575 3.30584C2.68307 3.92852 2.33325 4.77306 2.33325 5.65367V15.3463C2.33325 16.2269 2.68307 17.0715 3.30575 17.6942C3.92844 18.3168 4.77298 18.6667 5.65359 18.6667H6.73042C7.03984 18.6667 7.33658 18.5438 7.55538 18.325C7.77417 18.1062 7.89709 17.8094 7.89709 17.5C7.89709 17.1906 7.77417 16.8938 7.55538 16.675C7.33658 16.4563 7.03984 16.3333 6.73042 16.3333H5.65359C5.39182 16.3333 5.14077 16.2293 4.95567 16.0443C4.77057 15.8592 4.66659 15.6081 4.66659 15.3463V5.65367C4.66659 5.39234 4.77159 5.14034 4.95592 4.956Z" fill="#191919"/>
<path fill-rule="evenodd" clip-rule="evenodd" d="M12.6536 9.33334C11.773 9.33334 10.9284 9.68316 10.3058 10.3058C9.68307 10.9285 9.33325 11.7731 9.33325 12.6537V22.3463C9.33325 23.2269 9.68307 24.0715 10.3058 24.6942C10.9284 25.3168 11.773 25.6667 12.6536 25.6667H22.3463C23.2269 25.6667 24.0714 25.3168 24.6941 24.6942C25.3168 24.0715 25.6666 23.2269 25.6666 22.3463V12.6537C25.6666 11.7731 25.3168 10.9285 24.6941 10.3058C24.0714 9.68316 23.2269 9.33334 22.3463 9.33334H12.6536ZM11.6666 12.6537C11.6666 12.1088 12.1088 11.6667 12.6536 11.6667H22.3463C22.8911 11.6667 23.3333 12.1088 23.3333 12.6537V22.3463C23.3333 22.4759 23.3077 22.6043 23.2581 22.724C23.2085 22.8438 23.1358 22.9526 23.0442 23.0443C22.9525 23.1359 22.8437 23.2086 22.724 23.2582C22.6042 23.3078 22.4759 23.3333 22.3463 23.3333H12.6536C12.524 23.3333 12.3956 23.3078 12.2759 23.2582C12.1561 23.2086 12.0473 23.1359 11.9557 23.0443C11.864 22.9526 11.7913 22.8438 11.7417 22.724C11.6921 22.6043 11.6666 22.4759 11.6666 22.3463V12.6537Z" fill="#191919"/>
</svg>
